<svg xmlns="http://www.w3.org/2000/svg" xmlns:xlink="http://www.w3.org/1999/xlink" width="150" zoomAndPan="magnify" viewBox="0 0 112.5 112.499997" height="150" preserveAspectRatio="xMidYMid meet" version="1.0"><defs><clipPath id="00983c2610"><path d="M 11.613281 5 L 100.46875 5 L 100.46875 107.582031 L 11.613281 107.582031 Z M 11.613281 5 " clip-rule="nonzero"/></clipPath></defs><g clip-path="url(#00983c2610)"><path fill="#6366f1" d="M 56.03125 15.316406 L 61.308594 19.097656 C 63.003906 17.359375 64.925781 15.640625 67.035156 14.027344 C 72.492188 9.8125 78.242188 6.992188 83.128906 5.828125 C 88.507812 4.539062 93.003906 5.253906 95.335938 8.28125 C 97.667969 11.308594 97.199219 15.828125 94.582031 20.714844 C 92.574219 24.457031 89.242188 28.503906 84.949219 32.207031 L 81.613281 29.875 C 85.910156 26.316406 89.203125 22.410156 91.125 18.851562 C 93.003906 15.355469 93.515625 12.351562 92.226562 10.695312 C 90.941406 9.015625 87.914062 8.75 84.046875 9.671875 C 79.691406 10.714844 74.476562 13.289062 69.445312 17.15625 C 67.667969 18.527344 66.03125 19.976562 64.558594 21.429688 L 64.519531 21.472656 L 64.4375 21.550781 L 64.335938 21.65625 L 64.3125 21.675781 L 64.128906 21.859375 L 64.070312 21.921875 L 63.945312 22.042969 L 63.824219 22.167969 L 63.761719 22.226562 L 63.578125 22.410156 L 63.558594 22.433594 L 63.453125 22.554688 L 63.375 22.636719 L 63.332031 22.675781 L 63.210938 22.800781 L 63.1875 22.820312 L 63.105469 22.921875 L 63.027344 23.023438 L 62.839844 23.210938 L 62.757812 23.289062 L 62.65625 23.394531 L 62.636719 23.414062 L 62.535156 23.535156 L 62.492188 23.597656 L 62.433594 23.679688 L 62.332031 23.800781 L 62.226562 23.925781 L 62.167969 23.984375 L 62.125 24.046875 L 62.023438 24.171875 L 61.921875 24.292969 L 61.859375 24.375 L 61.820312 24.414062 L 61.714844 24.539062 L 61.695312 24.558594 L 61.613281 24.660156 L 61.53125 24.742188 L 61.511719 24.785156 L 61.410156 24.90625 L 61.390625 24.949219 L 61.328125 25.027344 L 61.246094 25.132812 L 61.226562 25.152344 L 61.125 25.273438 L 61.082031 25.316406 L 61.019531 25.398438 L 60.941406 25.519531 L 60.835938 25.644531 L 60.796875 25.703125 L 60.753906 25.765625 L 60.652344 25.886719 L 60.570312 26.011719 L 60.511719 26.09375 L 60.46875 26.132812 L 60.386719 26.257812 L 60.367188 26.277344 L 60.285156 26.378906 L 60.222656 26.460938 L 60.203125 26.5 L 60.121094 26.625 L 60.101562 26.664062 L 60.039062 26.746094 L 59.980469 26.847656 L 59.957031 26.871094 L 59.875 26.992188 L 59.855469 27.035156 L 59.792969 27.113281 L 59.710938 27.238281 L 59.632812 27.359375 L 59.589844 27.421875 L 59.550781 27.484375 L 59.386719 27.726562 L 59.34375 27.789062 L 59.304688 27.851562 L 59.222656 27.972656 L 59.222656 27.996094 L 59.160156 28.097656 L 59.121094 28.179688 L 59.097656 28.21875 L 59.015625 28.34375 L 58.996094 28.363281 L 58.9375 28.464844 L 58.875 28.566406 L 58.855469 28.585938 L 58.773438 28.75 L 58.730469 28.832031 L 58.667969 28.933594 L 58.667969 28.957031 L 58.609375 29.078125 L 58.589844 29.140625 L 58.546875 29.199219 L 58.484375 29.324219 L 58.464844 29.386719 L 58.445312 29.425781 L 58.425781 29.488281 L 58.402344 29.527344 L 58.363281 29.652344 L 58.363281 29.671875 L 58.34375 29.710938 L 58.320312 29.753906 L 58.300781 29.8125 L 58.28125 29.835938 L 58.261719 29.855469 L 58.242188 29.894531 L 58.21875 29.957031 L 58.199219 30 L 58.117188 30.160156 L 58.035156 30.304688 L 58.015625 30.347656 L 57.996094 30.386719 L 57.972656 30.429688 L 57.933594 30.507812 L 57.914062 30.550781 L 57.914062 30.570312 L 57.894531 30.613281 L 57.871094 30.652344 L 57.851562 30.695312 L 57.851562 30.714844 L 57.832031 30.734375 L 57.769531 30.855469 L 57.769531 30.878906 L 57.75 30.917969 L 57.730469 30.960938 L 57.707031 31 L 57.707031 31.019531 L 57.6875 31.0625 L 57.667969 31.101562 L 57.648438 31.144531 L 57.625 31.183594 L 57.605469 31.226562 L 57.585938 31.265625 L 57.566406 31.308594 L 57.542969 31.347656 L 57.523438 31.390625 L 57.523438 31.410156 L 57.503906 31.449219 L 57.484375 31.492188 L 57.464844 31.53125 L 57.464844 31.550781 L 57.421875 31.675781 L 57.421875 31.714844 L 57.402344 31.757812 L 57.382812 31.796875 L 57.238281 32.003906 L 57.238281 32.023438 L 57.21875 32.0625 L 57.199219 32.105469 L 57.175781 32.144531 L 57.15625 32.1875 L 57.136719 32.226562 L 57.117188 32.269531 L 57.09375 32.308594 L 57.074219 32.351562 L 57.054688 32.390625 L 57.035156 32.433594 C 56.378906 34.558594 56.421875 36.316406 57.277344 37.460938 C 58.242188 38.730469 60.203125 39.179688 62.757812 38.957031 C 62.699219 36.726562 61.574219 34.761719 59.855469 33.578125 C 60.164062 32.636719 60.613281 31.65625 61.164062 30.613281 C 62.472656 28.199219 64.417969 25.601562 66.871094 23.085938 L 79.039062 31.796875 L 82.390625 34.191406 L 100.367188 47.074219 L 100.367188 107.464844 L 11.632812 107.464844 L 11.632812 47.113281 Z M 44.640625 62.25 L 44.640625 71.246094 L 53.640625 71.246094 L 53.640625 62.25 Z M 53.640625 76.011719 L 44.640625 76.011719 L 44.640625 85.007812 L 53.640625 85.007812 Z M 58.402344 62.25 L 58.402344 71.246094 L 67.402344 71.246094 L 67.402344 62.25 Z M 67.402344 76.011719 L 58.402344 76.011719 L 58.402344 85.007812 L 67.402344 85.007812 Z M 57.074219 32.472656 C 56.726562 32.410156 56.378906 32.390625 56.03125 32.390625 Z M 52.882812 33.167969 C 50.714844 34.292969 49.222656 36.5625 49.222656 39.179688 C 49.222656 42.921875 52.269531 45.96875 56.011719 45.96875 C 58.363281 45.96875 60.429688 44.785156 61.636719 42.964844 C 58.402344 42.964844 55.808594 41.980469 54.210938 39.894531 C 52.839844 38.117188 52.433594 35.785156 52.882812 33.167969 Z M 52.882812 33.167969 " fill-opacity="1" fill-rule="evenodd"/></g></svg>